<svg xmlns="http://www.w3.org/2000/svg" viewBox="0 0 24 24" width="100%" height="100%">
  <!-- Food Cloche / Plate (Emerald 800: #065f46) -->
  <g fill="#065f46">
    <path d="M12 3C7.589 3 4 6.589 4 11v2h16v-2c0-4.411-3.589-8-8-8zm-6 8c0-3.309 2.691-6 6-6s6 2.691 6 6H6z" />
    <path d="M2 14h20v3H2z" />
  </g>

  <!-- Sprouting Leaf (Shifted and sized to match absolute position, Emerald 500: #10b981) -->
  <g fill="#10b981" transform="translate(11, -1.5) scale(0.65)">
    <path d="M17.5 2a5.5 5.5 0 00-5.5 5.5c0 1.25.43 2.4 1.15 3.32L9.4 14.58a1 1 0 001.41 1.41l3.76-3.76A5.46 5.46 0 0017.5 13a5.5 5.5 0 000-11z" />
  </g>
</svg>
